<mxfile host="Electron" modified="2023-07-08T09:56:52.098Z" agent="Mozilla/5.0 (Windows NT 10.0; Win64; x64) AppleWebKit/537.36 (KHTML, like Gecko) draw.io/21.6.1 Chrome/112.0.5615.204 Electron/24.6.1 Safari/537.36" etag="SxHrp5BrU0aKS1AOhah4" version="21.6.1" type="device">
  <diagram name="第 1 页" id="mbbMeT6vz4AFnkfvKPPb">
    <mxGraphModel dx="819" dy="478" grid="1" gridSize="10" guides="1" tooltips="1" connect="1" arrows="1" fold="1" page="1" pageScale="1" pageWidth="1169" pageHeight="827" math="0" shadow="0">
      <root>
        <mxCell id="0" />
        <mxCell id="1" parent="0" />
        <mxCell id="TXv0nFeJduu0BksFQTrR-35" value="" style="group" vertex="1" connectable="0" parent="1">
          <mxGeometry x="350" y="240" width="540" height="290" as="geometry" />
        </mxCell>
        <mxCell id="TXv0nFeJduu0BksFQTrR-7" value="" style="group" vertex="1" connectable="0" parent="TXv0nFeJduu0BksFQTrR-35">
          <mxGeometry x="130" width="280" height="180" as="geometry" />
        </mxCell>
        <mxCell id="TXv0nFeJduu0BksFQTrR-5" value="&amp;nbsp; &amp;nbsp; Service (MyService)&lt;br&gt;&lt;br&gt;&lt;span style=&quot;white-space: pre;&quot;&gt;&#x9;&lt;/span&gt;&lt;span style=&quot;white-space: pre;&quot;&gt;&#x9;&lt;/span&gt;spec.selector: app=MyAPP" style="rounded=0;whiteSpace=wrap;html=1;align=left;" vertex="1" parent="TXv0nFeJduu0BksFQTrR-7">
          <mxGeometry width="280" height="70" as="geometry" />
        </mxCell>
        <mxCell id="TXv0nFeJduu0BksFQTrR-6" value="&amp;nbsp; &amp;nbsp; Endpoints (MyService)&lt;br&gt;&lt;br&gt;&lt;span style=&quot;white-space: pre;&quot;&gt;&#x9;&lt;/span&gt;addresses:&lt;br&gt;&lt;br&gt;&lt;span style=&quot;white-space: pre;&quot;&gt;&#x9;&lt;/span&gt;&lt;span style=&quot;white-space: pre;&quot;&gt;&#x9;&lt;/span&gt;ports:" style="rounded=0;whiteSpace=wrap;html=1;align=left;" vertex="1" parent="TXv0nFeJduu0BksFQTrR-7">
          <mxGeometry y="70" width="280" height="110" as="geometry" />
        </mxCell>
        <mxCell id="TXv0nFeJduu0BksFQTrR-9" value="&lt;font style=&quot;font-size: 10px;&quot;&gt;PodIP&lt;/font&gt;" style="rounded=1;whiteSpace=wrap;html=1;" vertex="1" parent="TXv0nFeJduu0BksFQTrR-7">
          <mxGeometry x="95" y="115" width="35" height="20" as="geometry" />
        </mxCell>
        <mxCell id="TXv0nFeJduu0BksFQTrR-12" value="&lt;font style=&quot;font-size: 10px;&quot;&gt;PodIP&lt;/font&gt;" style="rounded=1;whiteSpace=wrap;html=1;" vertex="1" parent="TXv0nFeJduu0BksFQTrR-7">
          <mxGeometry x="230" y="115" width="35" height="20" as="geometry" />
        </mxCell>
        <mxCell id="TXv0nFeJduu0BksFQTrR-11" value="&lt;font style=&quot;font-size: 10px;&quot;&gt;PodIP&lt;/font&gt;" style="rounded=1;whiteSpace=wrap;html=1;" vertex="1" parent="TXv0nFeJduu0BksFQTrR-7">
          <mxGeometry x="185" y="115" width="35" height="20" as="geometry" />
        </mxCell>
        <mxCell id="TXv0nFeJduu0BksFQTrR-10" value="&lt;font style=&quot;font-size: 10px;&quot;&gt;PodIP&lt;/font&gt;" style="rounded=1;whiteSpace=wrap;html=1;" vertex="1" parent="TXv0nFeJduu0BksFQTrR-7">
          <mxGeometry x="140" y="115" width="35" height="20" as="geometry" />
        </mxCell>
        <mxCell id="TXv0nFeJduu0BksFQTrR-22" value="&lt;font style=&quot;font-size: 10px;&quot;&gt;TargetPort&lt;/font&gt;" style="rounded=1;whiteSpace=wrap;html=1;" vertex="1" parent="TXv0nFeJduu0BksFQTrR-7">
          <mxGeometry x="115" y="144" width="60" height="20" as="geometry" />
        </mxCell>
        <mxCell id="TXv0nFeJduu0BksFQTrR-25" value="&lt;font style=&quot;font-size: 10px;&quot;&gt;TargetPort&lt;/font&gt;" style="rounded=1;whiteSpace=wrap;html=1;" vertex="1" parent="TXv0nFeJduu0BksFQTrR-7">
          <mxGeometry x="185" y="144" width="60" height="20" as="geometry" />
        </mxCell>
        <mxCell id="TXv0nFeJduu0BksFQTrR-26" value="BackendPod&lt;br&gt;labels: app=MyAPP" style="rounded=1;whiteSpace=wrap;html=1;" vertex="1" parent="TXv0nFeJduu0BksFQTrR-35">
          <mxGeometry y="230" width="120" height="60" as="geometry" />
        </mxCell>
        <mxCell id="TXv0nFeJduu0BksFQTrR-27" value="BackendPod&lt;br&gt;labels: app=MyAPP" style="rounded=1;whiteSpace=wrap;html=1;" vertex="1" parent="TXv0nFeJduu0BksFQTrR-35">
          <mxGeometry x="140" y="230" width="120" height="60" as="geometry" />
        </mxCell>
        <mxCell id="TXv0nFeJduu0BksFQTrR-28" value="BackendPod&lt;br&gt;labels: app=MyAPP" style="rounded=1;whiteSpace=wrap;html=1;" vertex="1" parent="TXv0nFeJduu0BksFQTrR-35">
          <mxGeometry x="280" y="230" width="120" height="60" as="geometry" />
        </mxCell>
        <mxCell id="TXv0nFeJduu0BksFQTrR-29" value="BackendPod&lt;br&gt;labels: app=MyAPP" style="rounded=1;whiteSpace=wrap;html=1;" vertex="1" parent="TXv0nFeJduu0BksFQTrR-35">
          <mxGeometry x="420" y="230" width="120" height="60" as="geometry" />
        </mxCell>
        <mxCell id="TXv0nFeJduu0BksFQTrR-30" value="" style="endArrow=classic;html=1;rounded=0;exitX=0.5;exitY=1;exitDx=0;exitDy=0;entryX=0.5;entryY=0;entryDx=0;entryDy=0;dashed=1;" edge="1" parent="TXv0nFeJduu0BksFQTrR-35" source="TXv0nFeJduu0BksFQTrR-6" target="TXv0nFeJduu0BksFQTrR-26">
          <mxGeometry width="50" height="50" relative="1" as="geometry">
            <mxPoint y="210" as="sourcePoint" />
            <mxPoint x="50" y="160" as="targetPoint" />
          </mxGeometry>
        </mxCell>
        <mxCell id="TXv0nFeJduu0BksFQTrR-31" value="" style="endArrow=classic;html=1;rounded=0;entryX=0.5;entryY=0;entryDx=0;entryDy=0;dashed=1;" edge="1" parent="TXv0nFeJduu0BksFQTrR-35" target="TXv0nFeJduu0BksFQTrR-27">
          <mxGeometry width="50" height="50" relative="1" as="geometry">
            <mxPoint x="270" y="180" as="sourcePoint" />
            <mxPoint x="70" y="240" as="targetPoint" />
          </mxGeometry>
        </mxCell>
        <mxCell id="TXv0nFeJduu0BksFQTrR-32" value="" style="endArrow=classic;html=1;rounded=0;entryX=0.5;entryY=0;entryDx=0;entryDy=0;dashed=1;exitX=0.5;exitY=1;exitDx=0;exitDy=0;" edge="1" parent="TXv0nFeJduu0BksFQTrR-35" source="TXv0nFeJduu0BksFQTrR-6" target="TXv0nFeJduu0BksFQTrR-28">
          <mxGeometry width="50" height="50" relative="1" as="geometry">
            <mxPoint x="300" y="190" as="sourcePoint" />
            <mxPoint x="230" y="240" as="targetPoint" />
          </mxGeometry>
        </mxCell>
        <mxCell id="TXv0nFeJduu0BksFQTrR-33" value="" style="endArrow=classic;html=1;rounded=0;entryX=0.5;entryY=0;entryDx=0;entryDy=0;dashed=1;" edge="1" parent="TXv0nFeJduu0BksFQTrR-35" target="TXv0nFeJduu0BksFQTrR-29">
          <mxGeometry width="50" height="50" relative="1" as="geometry">
            <mxPoint x="270" y="180" as="sourcePoint" />
            <mxPoint x="490" y="230" as="targetPoint" />
          </mxGeometry>
        </mxCell>
        <mxCell id="TXv0nFeJduu0BksFQTrR-34" value="PodIP: Port" style="text;html=1;strokeColor=none;fillColor=none;align=center;verticalAlign=middle;whiteSpace=wrap;rounded=0;" vertex="1" parent="TXv0nFeJduu0BksFQTrR-35">
          <mxGeometry x="230" y="200" width="80" height="30" as="geometry" />
        </mxCell>
      </root>
    </mxGraphModel>
  </diagram>
</mxfile>
